<svg width="631" height="631" viewBox="0 0 631 631" fill="none" xmlns="http://www.w3.org/2000/svg">
<g clip-path="url(#clip0_4118_574)">
<rect width="631" height="631" rx="150" fill="#01110E"/>
<path opacity="0.03" d="M102.058 320.603C77.8153 320.603 59.2499 313.699 46.3615 299.89C33.7799 286.08 27.4892 266.594 27.4892 241.431V68.3586C27.4892 43.1955 33.7799 23.7095 46.3615 9.9005C59.2499 -3.90851 77.8153 -10.813 102.058 -10.813C126.3 -10.813 144.712 -3.90851 157.294 9.9005C170.182 23.7095 176.626 43.1955 176.626 68.3586V102.421H128.755V65.1365C128.755 45.1902 120.316 35.217 103.439 35.217C86.561 35.217 78.1222 45.1902 78.1222 65.1365V245.114C78.1222 264.753 86.561 274.573 103.439 274.573C120.316 274.573 128.755 264.753 128.755 245.114V195.862H176.626V241.431C176.626 266.594 170.182 286.08 157.294 299.89C144.712 313.699 126.3 320.603 102.058 320.603ZM239.58 320.603C214.723 320.603 195.698 313.545 182.502 299.429C169.307 285.313 162.709 265.367 162.709 239.59V70.1998C162.709 44.423 169.307 24.4767 182.502 10.3608C195.698 -3.75508 214.723 -10.813 239.58 -10.813C264.436 -10.813 283.461 -3.75508 296.657 10.3608C309.852 24.4767 316.45 44.423 316.45 70.1998V239.59C316.45 265.367 309.852 285.313 296.657 299.429C283.461 313.545 264.436 320.603 239.58 320.603ZM239.58 274.573C257.071 274.573 265.817 263.986 265.817 242.812V66.9777C265.817 45.8039 257.071 35.217 239.58 35.217C222.088 35.217 213.342 45.8039 213.342 66.9777V242.812C213.342 263.986 222.088 274.573 239.58 274.573ZM309.265 -6.21001H372.786L422.038 186.656H422.959V-6.21001H468.068V316H416.054L355.295 80.7867H354.374V316H309.265V-6.21001ZM450.926 -6.21001H502.019L535.16 243.733H536.081L569.223 -6.21001H615.713L566.921 316H499.717L450.926 -6.21001ZM-18.0248 309.79H120.065V355.82H32.6082V440.975H102.114V487.005H32.6082V585.97H120.065V632H-18.0248V309.79ZM107.767 309.79H182.795C208.879 309.79 227.905 315.927 239.873 328.202C251.84 340.17 257.824 358.735 257.824 383.898V403.691C257.824 437.14 246.777 458.313 224.683 467.213V468.133C236.957 471.816 245.55 479.334 250.46 490.688C255.676 502.042 258.285 517.232 258.285 536.258V592.875C258.285 602.08 258.592 609.599 259.205 615.429C259.819 620.953 261.353 626.476 263.808 632H212.255C210.413 626.783 209.186 621.873 208.572 617.27C207.959 612.667 207.652 604.382 207.652 592.414V533.496C207.652 518.766 205.197 508.486 200.287 502.656C195.684 496.825 187.552 493.91 175.891 493.91H158.4V632H107.767V309.79ZM176.812 447.88C186.938 447.88 194.456 445.272 199.366 440.055C204.583 434.838 207.191 426.092 207.191 413.818V388.962C207.191 377.301 205.043 368.862 200.747 363.645C196.758 358.428 190.314 355.82 181.415 355.82H158.4V447.88H176.812ZM290.675 355.82H237.74V309.79H394.242V355.82H341.308V632H290.675V355.82ZM377.33 309.79H515.42V355.82H427.963V440.975H497.468V487.005H427.963V585.97H515.42V632H377.33V309.79ZM503.121 309.79H578.15C604.234 309.79 623.259 315.927 635.227 328.202C647.195 340.17 653.179 358.735 653.179 383.898V403.691C653.179 437.14 642.132 458.313 620.037 467.213V468.133C632.312 471.816 640.904 479.334 645.814 490.688C651.031 502.042 653.639 517.232 653.639 536.258V592.875C653.639 602.08 653.946 609.599 654.56 615.429C655.174 620.953 656.708 626.476 659.163 632H607.609C605.768 626.783 604.541 621.873 603.927 617.27C603.313 612.667 603.006 604.382 603.006 592.414V533.496C603.006 518.766 600.551 508.486 595.641 502.656C591.038 496.825 582.906 493.91 571.245 493.91H553.754V632H503.121V309.79ZM572.166 447.88C582.293 447.88 589.811 445.272 594.721 440.055C599.938 434.838 602.546 426.092 602.546 413.818V388.962C602.546 377.301 600.398 368.862 596.102 363.645C592.112 358.428 585.668 355.82 576.769 355.82H553.754V447.88H572.166Z" fill="white"/>
<path d="M412.84 376.938C404.471 376.938 398.935 370.5 398.935 362.774C398.935 355.693 402.926 350.414 410.394 347.839L496.789 314.491V313.203L410.394 278.825C402.926 276.25 398.935 271.357 398.935 264.147C398.935 256.55 404.471 250.241 412.84 250.241C416.832 250.241 419.664 251.143 423.527 252.688L518.421 293.375C529.107 297.752 534 304.061 534 313.332C534 322.602 529.365 329.169 518.549 333.547L423.527 374.362C419.664 375.907 416.832 376.938 412.84 376.938Z" fill="url(#paint0_linear_4118_574)"/>
<path d="M285.908 431.916C277.281 431.916 272.002 426.637 272.002 419.298C272.002 417.109 272.388 414.92 272.774 413.504L331.487 211.356C333.934 203.116 338.312 199.253 346.037 199.253C354.277 199.253 359.814 204.532 359.814 212.386C359.814 214.189 359.685 215.734 359.17 217.665L300.2 420.585C297.882 428.182 293.376 431.916 285.908 431.916Z" fill="url(#paint1_linear_4118_574)"/>
<path d="M219.36 376.938C215.369 376.938 212.536 375.907 208.673 374.362L113.78 333.804C103.093 329.426 98.2002 322.989 98.2002 313.718C98.2002 304.576 102.964 298.139 113.651 293.632L208.673 252.688C212.536 251.143 215.369 250.241 219.36 250.241C227.729 250.241 233.266 256.55 233.266 264.147C233.266 271.357 229.403 276.25 221.806 278.825L135.54 312.302V313.589L221.806 347.839C229.274 350.542 233.266 355.693 233.266 362.774C233.266 370.5 227.729 376.938 219.36 376.938Z" fill="url(#paint2_linear_4118_574)"/>
<path d="M482.806 131.114C481.878 129.259 479.983 128.088 477.909 128.088C475.836 128.088 473.94 129.259 473.013 131.114L469.434 138.271C468.13 140.879 467.78 141.527 467.369 142.06C466.938 142.619 466.438 143.12 465.879 143.551C465.346 143.961 464.698 144.311 462.09 145.616L454.932 149.194C453.078 150.122 451.906 152.017 451.906 154.091C451.906 156.164 453.078 158.06 454.932 158.987L462.09 162.566C464.698 163.87 465.346 164.22 465.879 164.631C466.438 165.062 466.938 165.562 467.369 166.121C467.78 166.654 468.13 167.302 469.434 169.91L473.013 177.068C473.94 178.922 475.836 180.094 477.909 180.094C479.983 180.094 481.878 178.922 482.806 177.068L486.384 169.91C487.689 167.302 488.039 166.654 488.449 166.121C488.88 165.562 489.381 165.062 489.94 164.631C490.473 164.22 491.121 163.87 493.729 162.566L500.886 158.987C502.741 158.06 503.912 156.164 503.912 154.091C503.912 152.017 502.741 150.122 500.886 149.194L493.729 145.616C491.121 144.311 490.473 143.961 489.94 143.551C489.381 143.12 488.88 142.619 488.449 142.06C488.039 141.527 487.689 140.879 486.384 138.271L482.806 131.114Z" fill="url(#paint3_linear_4118_574)" fill-opacity="0.6" style="mix-blend-mode:screen"/>
<path d="M521.795 81.4154C520.982 79.3013 518.951 77.9062 516.686 77.9063C514.421 77.9063 512.39 79.3013 511.576 81.4154L506.2 95.3951C504.812 99.0018 504.424 99.8994 503.917 100.612C503.386 101.36 502.732 102.014 501.984 102.546C501.271 103.053 500.373 103.441 496.767 104.828L482.787 110.205C480.673 111.018 479.278 113.049 479.278 115.314C479.278 117.579 480.673 119.61 482.787 120.424L496.767 125.8C500.373 127.188 501.271 127.576 501.984 128.083C502.732 128.614 503.386 129.268 503.917 130.016C504.424 130.729 504.812 131.627 506.2 135.233L511.576 149.213C512.39 151.327 514.421 152.722 516.686 152.722C518.951 152.722 520.982 151.327 521.795 149.213L527.172 135.233C528.559 131.627 528.947 130.729 529.454 130.016C529.986 129.268 530.64 128.614 531.388 128.083C532.101 127.576 532.998 127.188 536.605 125.8L550.585 120.424C552.699 119.61 554.094 117.579 554.094 115.314C554.094 113.049 552.699 111.018 550.585 110.205L536.605 104.828C532.998 103.441 532.101 103.053 531.388 102.546C530.64 102.014 529.986 101.36 529.454 100.612C528.947 99.8994 528.559 99.0018 527.172 95.3951L521.795 81.4154Z" fill="url(#paint4_linear_4118_574)" fill-opacity="0.6" style="mix-blend-mode:screen"/>
</g>
<rect x="20" y="20" width="591" height="591" rx="130" stroke="white" stroke-opacity="0.05" stroke-width="40"/>
<defs>
<linearGradient id="paint0_linear_4118_574" x1="464.82" y1="250.241" x2="512.9" y2="354.837" gradientUnits="userSpaceOnUse">
<stop stop-color="#00E09D"/>
<stop offset="1" stop-color="#00FFD0"/>
</linearGradient>
<linearGradient id="paint1_linear_4118_574" x1="314.837" y1="199.253" x2="427.312" y2="285.88" gradientUnits="userSpaceOnUse">
<stop stop-color="#00E09D"/>
<stop offset="1" stop-color="#00FFD0"/>
</linearGradient>
<linearGradient id="paint2_linear_4118_574" x1="164.086" y1="250.241" x2="212.165" y2="354.837" gradientUnits="userSpaceOnUse">
<stop stop-color="#00E09D"/>
<stop offset="1" stop-color="#00FFD0"/>
</linearGradient>
<linearGradient id="paint3_linear_4118_574" x1="412.341" y1="187.168" x2="608.332" y2="61.9231" gradientUnits="userSpaceOnUse">
<stop stop-color="#01E7A9"/>
<stop offset="1"/>
</linearGradient>
<linearGradient id="paint4_linear_4118_574" x1="412.341" y1="187.168" x2="608.332" y2="61.9231" gradientUnits="userSpaceOnUse">
<stop stop-color="#01E7A9"/>
<stop offset="1"/>
</linearGradient>
<clipPath id="clip0_4118_574">
<rect width="631" height="631" rx="150" fill="white"/>
</clipPath>
</defs>
</svg>
